<?xml version="1.0" encoding="UTF-8"?>
<svg width="122px" height="45px" viewBox="0 0 122 45" version="1.1" xmlns="http://www.w3.org/2000/svg" xmlns:xlink="http://www.w3.org/1999/xlink">
    <title>Eureka_Logo_Horizontal_Black_Negative_RGB</title>
    <g id="R&amp;D-landing" stroke="none" stroke-width="1" fill="none" fill-rule="evenodd">
        <g id="R&amp;D-Landing-desktop" transform="translate(-769.000000, -1088.000000)" fill="#FFFFFF" fill-rule="nonzero">
            <g id="grey-proyect-card" transform="translate(0.000000, 611.000000)">
                <g id="Eureka_Logo_Horizontal_Black_Negative_RGB" transform="translate(769.000000, 477.000000)">
                    <path d="M42.4139673,17.8540544 C41.7946211,17.2225287 41.0334147,16.7313896 40.1867866,16.4170519 C38.2911216,15.7442028 36.200399,15.7591947 34.3156663,16.4591516 C33.4204414,16.8034005 32.6061194,17.3128246 31.9198943,17.9579003 C31.2284415,18.6228397 30.6887734,19.4158286 30.3345439,20.2874161 C29.951178,21.2239759 29.7594472,22.2212909 29.769615,23.225974 C29.7603816,24.2393178 29.961383,25.2444815 30.3611636,26.1841784 C30.7257568,27.0401249 31.2690449,27.8172446 31.958345,28.4687879 C32.6520258,29.1102129 33.4762892,29.6106397 34.3807367,29.9394701 C36.5052536,30.6897424 38.8535402,30.6293815 40.9321379,29.7710714 C42.0218456,29.2792281 42.9652,28.5374392 43.6769237,27.612761 L43.8218531,27.4331356 L41.4556585,25.6368825 L41.3048136,25.8529942 C40.9041013,26.403999 40.3798853,26.8640555 39.7697448,27.2001841 C38.5519096,27.8415692 37.0989921,27.9441506 35.7945379,27.4808486 C35.293571,27.2940048 34.8333072,27.0209164 34.4369338,26.6753414 C34.0444307,26.3327603 33.7259714,25.9209421 33.4993292,25.4628705 C33.2980381,25.0716174 33.1708874,24.6497993 33.1236958,24.2167199 L44.2477681,24.2167199 L44.2743878,24.0090281 C44.2953428,23.8507512 44.3062077,23.691418 44.306923,23.5318984 L44.306923,23.0716085 C44.3204517,22.0665322 44.1554677,21.0664732 43.8188953,20.1134041 C43.5184893,19.2769776 43.0403074,18.5079843 42.4139673,17.8540544 Z M40.9528421,21.7833582 L33.1355268,21.7833582 C33.1938277,21.3918674 33.320794,21.0124021 33.5111602,20.6607 C33.7346292,20.2396245 34.0350599,19.8595138 34.3984831,19.5380418 C34.7742853,19.2128203 35.2105851,18.9567996 35.6851014,18.7830541 C36.1891482,18.5954942 36.7260825,18.5002597 37.2674941,18.5023896 C37.8174109,18.4910743 38.3639578,18.5865856 38.8735486,18.7830541 C39.3021977,18.950908 39.6875987,19.2046092 40.0034066,19.5268152 C40.3135035,19.8510666 40.5482992,20.2335576 40.6925607,20.6494734 C40.8267304,21.0113947 40.9141294,21.387426 40.9528421,21.769325 L40.9528421,21.7833582 Z" id="Shape"></path>
                    <path d="M81.8759202,17.8544466 C81.2600998,17.2241847 80.5032293,16.7330417 79.661019,16.4171688 C77.7657204,15.7432308 75.6746955,15.7592306 73.7910873,16.4620837 C72.889471,16.8062484 72.0698933,17.3188796 71.3810146,17.9695411 C70.6914708,18.6294748 70.1519908,19.416767 69.7959852,20.28266 C69.4124668,21.2203151 69.2207733,22.2187816 69.2311706,23.224588 C69.2222473,24.2380996 69.4231967,25.2433994 69.8225995,26.183359 C70.1878406,27.0391084 70.7309281,27.8162473 71.4194575,28.4684061 C72.1129979,29.1099541 72.9370944,29.6104767 73.8413588,29.9393701 C75.9654455,30.6897861 78.3132567,30.6294136 80.3914337,29.7709391 C81.4803828,29.2782017 82.4233561,28.5364202 83.1356637,27.6122153 L83.2805638,27.4297484 L80.9148482,25.6359583 L80.7640339,25.8493042 C80.3602699,26.4073455 79.8310197,26.8733222 79.2144902,27.2135952 C78.5049892,27.598612 77.6983365,27.7927175 76.8813032,27.7750319 C75.7716059,27.7762944 74.7017152,27.3826608 73.8827588,26.6718089 C73.4920396,26.3272765 73.174789,25.9146077 72.9483011,25.4562986 C72.752426,25.0659552 72.6303128,24.6459803 72.5875295,24.2155236 L83.7123069,24.2155236 L83.735964,24.0077921 C83.7568225,23.8494765 83.7676848,23.6901181 83.7684926,23.5305709 L83.7684926,23.0814216 C83.781732,22.0752543 83.6167931,21.0741261 83.2805638,20.1198434 C82.9800298,19.2816633 82.5020122,18.5107207 81.8759202,17.8544466 L81.8759202,17.8544466 Z M80.4150908,21.784503 L72.5993581,21.784503 C72.6584542,21.393112 72.7853533,21.0136983 72.9749154,20.6616297 C73.1983393,20.2404736 73.4987091,19.8602901 73.8620588,19.5387565 C74.2383619,19.2141991 74.6744231,18.9582176 75.1484166,18.7836242 C75.652282,18.5957657 76.1891609,18.5005035 76.7304889,18.5029059 C77.2801742,18.4929957 77.8263148,18.5884736 78.3362183,18.7836242 C78.7647806,18.9515103 79.1501036,19.20526 79.4658475,19.5275277 C79.7745462,19.8527681 80.0091218,20.2350511 80.1548621,20.650401 C80.2892302,21.0123305 80.3766177,21.3884603 80.4150908,21.7704671 L80.4150908,21.784503 Z" id="Shape"></path>
                    <polygon id="Path" points="97.8171909 16.3935599 93.5988789 16.3935599 88.2622236 22.0350626 88.2622236 8.30769231 85.1538462 8.30769231 85.1538462 30.4615385 88.2622236 30.4615385 88.2622236 23.7123435 94.0137029 30.4615385 98.3076923 30.4615385 91.3313609 22.8050089"></polygon>
                    <path d="M55.0165667,16.6153846 L55.0165667,24.1347367 C55.0165667,25.4379373 54.699727,26.4874174 54.0773632,27.2572284 C53.4953383,28.0129369 52.5951249,28.4411657 51.6529732,28.4105033 C51.1624711,28.4316669 50.6750085,28.3223681 50.23851,28.0933527 C49.8881546,27.8946022 49.5954199,27.6052031 49.389832,27.2543452 C49.1666414,26.8675175 49.0178257,26.4408843 48.9513485,25.9972756 C48.8673338,25.4808086 48.8256988,24.9581037 48.8268757,24.4345882 L48.8268757,16.6153846 L45.6923077,16.6153846 L45.6923077,25.3370258 C45.6883125,26.0940971 45.7921825,26.8477586 46.0007782,27.574379 C46.194669,28.2510119 46.5176805,28.8819922 46.9512975,29.4311515 C47.3922192,29.9813902 47.9557245,30.4163265 48.5949037,30.6997539 C49.3388895,31.016344 50.1397077,31.1705437 50.9457416,31.1524143 C51.9359326,31.1618432 52.9083036,30.883837 53.7492077,30.3508882 C54.2968147,30.0156687 54.7768386,29.5773177 55.1636709,29.0592204 L55.1636709,30.7891327 L58.1538462,30.7891327 L58.1538462,16.6153846 L55.0165667,16.6153846 Z" id="Path"></path>
                    <path d="M69.9230769,19.0990335 L69.9230769,16.0588502 L69.7322948,16.0185065 C69.4003427,15.9512928 69.0621686,15.9194155 68.7234623,15.9234107 C67.7858289,15.9132384 66.8666245,16.1832281 66.0843103,16.6985854 C65.5269696,17.0663133 65.0500719,17.5427152 64.6823511,18.0990869 L64.6823511,16.2980305 L61.6153846,16.2980305 L61.6153846,30.4615385 L64.8211017,30.4615385 L64.8211017,23.0325408 C64.8184788,22.4946191 64.8924458,21.9590484 65.0407901,21.4418477 C65.1780464,20.9610575 65.4066981,20.5110393 65.7143087,20.1162702 C66.0161144,19.7368293 66.3993544,19.4296108 66.835876,19.2171828 C67.3352033,18.9825114 67.8825181,18.8670727 68.4343986,18.880025 C68.834614,18.8772681 69.233643,18.9237258 69.6224506,19.0183462 L69.9230769,19.0990335 Z" id="Path"></path>
                    <path d="M110.413328,19.2529374 C110.183239,18.6003123 109.814473,18.004049 109.331868,17.5043069 C108.811894,16.9902283 108.184336,16.5951868 107.493386,16.3470008 C106.657873,16.0495376 105.774263,15.906373 104.886497,15.9246263 C103.802047,15.9163315 102.725038,16.1023604 101.707574,16.4737131 C100.779737,16.8050426 99.9275346,17.315164 99.2002935,17.9745505 L99.0380745,18.1294212 L100.774103,20.1906088 L100.956243,20.0075798 C101.425835,19.5553025 101.977058,19.1942565 102.58128,18.9431961 C103.229134,18.6630825 103.929051,18.5201684 104.636054,18.5236374 C105.449633,18.4831199 106.252823,18.718547 106.912812,19.1909891 C107.453542,19.6274428 107.738137,20.2891628 107.738137,21.2212025 L107.738137,21.3535466 C106.676599,21.3535466 105.609368,21.4070473 104.562059,21.4943381 C103.511518,21.5718817 102.475028,21.7800133 101.477052,22.1138207 C100.611548,22.388367 99.828982,22.8722949 99.2002935,23.5217357 C98.6083364,24.1552974 98.3095119,25.0197572 98.3095119,26.0925885 C98.2875612,26.8192286 98.464562,27.5382249 98.8217825,28.1734868 C99.1334307,28.708378 99.5622989,29.1673468 100.076845,29.5166378 C100.581635,29.8548682 101.143569,30.1009139 101.736033,30.2431219 C102.300148,30.3830308 102.879125,30.4558186 103.460678,30.4599408 C104.423931,30.4823068 105.37792,30.269544 106.238323,29.8404582 C106.850433,29.5176881 107.394337,29.0818172 107.840591,28.5564397 L107.840591,30.1220412 L110.769072,30.1220412 L110.769072,21.3929682 C110.774228,20.6648086 110.653925,19.9411048 110.413328,19.2529374 L110.413328,19.2529374 Z M107.738137,23.7413704 L107.738137,24.211614 C107.771524,25.1825223 107.430719,26.1296977 106.784745,26.8613101 C106.161482,27.5483726 105.247933,27.8975355 104.06971,27.8975355 C103.750405,27.8975355 103.431926,27.86543 103.119164,27.8017973 C102.834304,27.7449384 102.562327,27.6371081 102.316606,27.4836085 C102.086497,27.3406132 101.891942,27.1481165 101.747417,26.9204425 C101.599987,26.656349 101.528158,26.3574686 101.539663,26.0559827 C101.517804,25.6105678 101.698405,25.1788192 102.032012,24.8789657 C102.420644,24.5440405 102.880852,24.3004879 103.378145,24.1665607 C103.996173,23.9939598 104.630244,23.8835819 105.2707,23.8371086 C105.97365,23.780792 106.662369,23.7526337 107.316937,23.7526337 L107.738137,23.7413704 Z" id="Shape"></path>
                    <path d="M25.4746644,33.9230769 L11.9808963,33.9230769 C11.3359157,33.9257831 10.7532258,33.5406496 10.5060319,32.9482396 C10.2588381,32.3558295 10.3961544,31.6736068 10.8535974,31.2214447 L19.4013415,22.72424 L11.0987849,14.4680509 C10.6433709,14.0156196 10.5073463,13.3347069 10.7542811,12.7435315 C11.0012159,12.1523562 11.5823454,11.7676632 12.2260838,11.7692308 L25.4718462,11.7692308 C26.3244492,11.8049282 26.9971818,12.502659 26.9971818,13.3512514 C26.9971818,14.1998438 26.3244492,14.8975746 25.4718462,14.9332673 L16.0645366,14.9332673 L22.769147,21.6060392 C23.3912478,22.2253536 23.3912478,23.2287313 22.769147,23.8480458 L15.8221674,30.7590309 L25.4746644,30.7590309 C26.3272674,30.7947235 27,31.4924544 27,32.3410467 C27,33.1896391 26.3272674,33.88737 25.4746644,33.9230769 Z" id="Path"></path>
                </g>
            </g>
        </g>
    </g>
</svg>