<?xml version="1.0" encoding="UTF-8"?>
<svg width="178px" height="39px" viewBox="0 0 178 39" version="1.1" xmlns="http://www.w3.org/2000/svg" xmlns:xlink="http://www.w3.org/1999/xlink">
    <title>itea</title>
    <defs>
        <filter color-interpolation-filters="auto" id="filter-1">
            <feColorMatrix in="SourceGraphic" type="matrix" values="0 0 0 0 1.000000 0 0 0 0 1.000000 0 0 0 0 1.000000 0 0 0 1.000000 0"></feColorMatrix>
        </filter>
    </defs>
    <g id="R&amp;D-landing" stroke="none" stroke-width="1" fill="none" fill-rule="evenodd">
        <g id="R&amp;D-Landing-desktop" transform="translate(-907.000000, -1088.000000)">
            <g id="itea" transform="translate(0.000000, 611.000000)" filter="url(#filter-1)">
                <g transform="translate(907.000000, 477.000000)">
                    <path d="M7.54880244,0 C5.26612816,0 3.36059136,0.634986486 1.9909868,1.98433277 C-0.648975633,4.62349535 -0.569578267,9.40573732 1.67339733,14.8031225 C1.79249338,15.1007724 1.93143877,15.4182656 2.07038416,15.7159155 C2.07038416,15.7159155 1.19701313,12.1044299 4.07516766,8.8898108 C7.27091165,5.69503505 16.0443206,8.85012415 23.0908369,15.8945055 C30.1373531,22.9388868 33.2735491,31.2333978 30.0778051,34.4281735 C27.6164868,36.8887462 22.1182192,35.5790865 16.5008555,31.6302643 L16.5008555,32.2057208 L15.5877858,32.2057208 C24.083304,38.7937056 33.0155077,40.996315 37.0052253,37.0078061 C41.749218,32.2652508 37.739651,20.5973741 28.0730216,10.9138302 C21.1853001,4.00835219 13.2455635,0 7.54880244,0" id="Path" fill="#FFFFFF" fill-rule="nonzero"></path>
                    <path d="M21.1946911,3.09540225 C21.7700185,2.93666367 26.7297381,1.11117004 30.3007361,4.26609926 C33.6733454,7.2622899 30.1420251,16.0524386 23.0992234,23.096463 C16.0564217,30.1404873 7.80344841,33.2160472 4.56971129,30.0809603 C1.83194612,27.4220892 3.18098982,21.0923884 3.18098982,21.0923884 C-0.449524856,27.6998817 -1.14388559,33.8708439 1.99065714,37.0059308 C6.73214899,41.7482457 18.4172482,37.7400967 28.0787818,28.0768858 C37.7403154,18.4136749 41.7477687,6.7265472 37.0062769,1.98423221 C35.6572332,0.634954308 33.732862,0 31.451391,0 C28.4755593,0.0198423221 24.8847224,1.09132772 21.1946911,3.09540225" id="Path" fill="#00C441" fill-rule="nonzero"></path>
                    <rect id="Rectangle" fill="#FFFFFF" fill-rule="nonzero" x="59.3357143" y="11.7" width="3.62142857" height="15.6"></rect>
                    <polygon id="Path" fill="#FFFFFF" fill-rule="nonzero" points="86.0825598 14.4843038 86.0825598 27.3 82.4132709 27.3 82.4132709 14.4843038 75.2142857 14.4843038 75.2142857 11.7 93.3214286 11.7 93.3214286 14.4843038"></polygon>
                    <path d="M129.814286,27.3 L138.601313,11.7 L142.08074,11.7 L150.985714,27.3 L146.936212,27.3 L145.068723,23.8837975 L135.220175,23.8837975 L133.411659,27.3 L129.814286,27.3 Z M136.77314,21.06 L143.574731,21.06 L140.232909,14.7212658 L136.77314,21.06 Z" id="Shape" fill="#FFFFFF" fill-rule="nonzero"></path>
                    <polygon id="Path" fill="#FFFFFF" fill-rule="nonzero" points="103.907143 27.3 103.907143 11.7 119.925513 11.7 119.925513 14.3460759 107.535066 14.3460759 107.535066 17.8610127 114.790911 17.8610127 114.790911 20.5070886 107.535066 20.5070886 107.535066 24.3577215 120.064286 24.3577215 120.064286 27.3"></polygon>
                    <path d="M162.908571,27.4114286 L163.465714,27.3835714 L164.635714,27.1885714 L165.805714,27.0492857 C168.814286,26.1857143 171.126429,25.35 172.686429,24.6257143 C174.218571,23.9014286 174.970714,23.2885714 174.970714,22.7592857 C174.970714,22.3971429 174.831429,22.0628571 174.552857,21.7564286 C174.274286,21.45 173.912143,21.2271429 173.466429,21.1157143 C173.327143,21.0878571 173.215714,21.06 173.104286,21.0321429 C173.020714,21.0042857 172.909286,20.9485714 172.825714,20.8928571 C172.575,20.7814286 172.268571,20.6978571 171.906429,20.5864286 C171.544286,20.5028571 171.154286,20.3914286 170.736429,20.28 L170.374286,20.3078571 L170.179286,20.1964286 L169.928571,20.1128571 L169.538571,20.0571429 L169.315714,19.9735714 L167.672143,19.5557143 L167.560714,19.2214286 L167.588571,19.1935714 C167.672143,18.9707143 168.034286,18.6364286 168.675,18.135 C169.287857,17.6892857 169.733571,17.2992857 170.04,16.965 L170.067857,16.9371429 L171.460714,15.9621429 L171.767143,15.6557143 L172.77,15.015 L172.825714,14.9592857 C174.580714,13.6221429 174.831429,13.1207143 174.831429,12.9814286 C174.831429,12.6471429 174.636429,12.3407143 174.190714,12.1178571 C173.745,11.8671429 173.104286,11.7 172.296429,11.6164286 L171.767143,11.6164286 L171.237857,11.505 C171.070714,11.505 170.875714,11.4771429 170.708571,11.4771429 C170.513571,11.4771429 170.262857,11.4771429 169.928571,11.4771429 C169.566429,11.4771429 169.148571,11.4771429 168.730714,11.505 C168.312857,11.5328571 167.644286,11.5885714 166.780714,11.6442857 L166.335,11.7557143 L165.972857,11.7557143 C165.889286,11.7557143 165.75,11.7835714 165.527143,11.7835714 C164.830714,11.8392857 164.329286,11.895 163.995,11.9507143 L163.660714,12.09 L163.354286,12.0621429 C163.103571,12.1178571 162.908571,12.2292857 162.713571,12.3407143 C162.518571,12.4521429 162.24,12.675 161.905714,12.9814286 L161.905714,13.3157143 L161.515714,13.5107143 L161.571429,13.7892857 L161.432143,14.235 L161.487857,14.2907143 L162.100714,14.4021429 C162.351429,14.2907143 162.63,14.2071429 162.936429,14.1514286 C163.242857,14.0957143 163.577143,14.0678571 163.911429,14.0678571 L164.496429,13.8728571 L165.053571,13.9007143 L165.694286,13.7892857 C166.335,13.7057143 166.947857,13.65 167.505,13.6221429 C168.814286,13.5385714 169.733571,13.5664286 170.179286,13.6221429 C170.457857,13.65 170.708571,13.7057143 170.959286,13.7892857 L171.070714,13.8171429 L171.126429,14.2071429 L169.761429,15.4607143 C168.368571,16.7421429 167.115,17.2992857 165.638571,18.5528571 L165.443571,18.6085714 C165.248571,18.7478571 165.025714,18.9428571 164.802857,19.1378571 C164.58,19.3328571 164.329286,19.5557143 164.050714,19.8064286 L164.273571,19.9735714 L164.19,20.3078571 C164.245714,20.4192857 164.357143,20.5028571 164.524286,20.5864286 C164.719286,20.6978571 165.025714,20.7814286 165.443571,20.8928571 L166.195714,20.9764286 L168.535714,21.3664286 L169.009286,21.5057143 C169.204286,21.5335714 169.455,21.5614286 169.761429,21.645 C170.067857,21.7007143 170.457857,21.8121429 170.931429,21.9235714 L170.959286,21.9514286 L171.767143,22.3135714 L171.516429,22.7592857 L170.736429,23.0935714 L170.652857,23.3442857 L170.318571,23.4278571 C169.845,23.6785714 169.315714,23.9292857 168.702857,24.1521429 C168.09,24.375 167.421429,24.5978571 166.697143,24.7928571 L166.307143,25.0992857 L165.777857,25.2107143 L165.471429,25.4614286 L165.025714,25.5171429 L163.131429,26.13 L162.825,26.3528571 L162.490714,26.3807143 L160.067143,27.1607143 L160.401429,27.5228571 L161.125714,27.5507143 L162.212143,27.3557143" id="Path" fill="#3E3A39" fill-rule="nonzero"></path>
                </g>
            </g>
        </g>
    </g>
</svg>