<?xml version="1.0" encoding="UTF-8"?>
<svg width="52px" height="52px" viewBox="0 0 52 52" version="1.1" xmlns="http://www.w3.org/2000/svg" xmlns:xlink="http://www.w3.org/1999/xlink">
    <title>LinkeIn</title>
    <defs>
        <filter color-interpolation-filters="auto" id="filter-1">
            <feColorMatrix in="SourceGraphic" type="matrix" values="0 0 0 0 0.921569 0 0 0 0 0.921569 0 0 0 0 0.921569 0 0 0 1.000000 0"></feColorMatrix>
        </filter>
    </defs>
    <g id="Symbols" stroke="none" stroke-width="1" fill="none" fill-rule="evenodd">
        <g id="LinkeIn" filter="url(#filter-1)">
            <g>
                <circle id="bg" stroke="#EBEBEB" stroke-width="2" cx="26" cy="26" r="25"></circle>
                <path d="M18.72,12.8522559 C18.72,14.407203 17.4810607,15.6655475 15.5435844,15.6655475 C13.6815162,15.6655475 12.4424462,14.407203 12.480869,12.8522559 C12.4424462,11.2217531 13.6813855,10 15.5807003,10 C17.4810607,10 18.6828841,11.2217531 18.72,12.8522559 Z M12.6366512,36 L12.6366512,17.8880067 L18.5271019,17.8880067 L18.5271019,35.9987511 L12.6366512,35.9987511 L12.6366512,36 Z" id="Shape" fill="#EBEBEB"></path>
                <path d="M24.0718406,23.3450362 C24.0718406,21.0271036 23.9959203,19.0511589 23.92,17.416946 L28.9070455,17.416946 L29.1721296,19.9628278 L29.2853731,19.9628278 C30.0410093,18.7845134 31.92959,17 34.9895851,17 C38.7666193,17 41.6,19.5080825 41.6,24.9779678 L41.6,36 L35.8584648,36 L35.8584648,25.7016651 C35.8584648,23.3062118 35.0280548,21.6732801 32.9503102,21.6732801 C31.3631177,21.6732801 30.4194642,22.7752271 30.0422831,23.8384778 C29.8904425,24.2190339 29.8156687,24.7501467 29.8156687,25.2834378 L29.8156687,36 L24.0741335,36 L24.0741335,23.3450362 L24.0718406,23.3450362 Z" id="Path" fill="#EBEBEB"></path>
            </g>
        </g>
    </g>
</svg>