<?xml version="1.0" encoding="utf-8"?>
<!-- Generator: Adobe Illustrator 26.0.1, SVG Export Plug-In . SVG Version: 6.00 Build 0)  -->
<svg version="1.1" id="Capa_1" xmlns="http://www.w3.org/2000/svg" xmlns:xlink="http://www.w3.org/1999/xlink" x="0px" y="0px"
	 viewBox="0 0 126 84" style="enable-background:new 0 0 126 84;" xml:space="preserve">
<style type="text/css">
	.st0{fill:#FFFFFF;}
</style>
<path class="st0" d="M126,0.5c0-0.2,0-0.4,0-0.5C84,0,42,0,0,0c0,28,0,56,0,83.9c0.2,0.1,0.4,0,0.5,0c41.6,0,83.3,0,124.9,0
	c0.2,0,0.4,0,0.5,0c0.1-0.2,0-0.4,0-0.5C126,55.8,126,28.2,126,0.5z M32.5,45.4c0.3-0.8,0.5-1.7,0.8-2.5c0.1-0.3,0.1-0.4-0.2-0.6
	c-0.7-0.5-1.4-1-2-1.5c-0.1-0.1-0.2-0.1-0.3-0.3c0.2,0,0.4,0,0.5,0c0.8,0,1.5,0,2.3,0c0.4,0,0.4,0,0.5-0.4c0.3-0.8,0.5-1.6,0.8-2.4
	c0-0.1,0.1-0.2,0.2-0.3c0.3,0.8,0.5,1.6,0.8,2.5c0,0.1,0.1,0.2,0.1,0.3c0,0.3,0.2,0.4,0.5,0.4c0.8,0,1.6,0,2.5,0c0.1,0,0.3,0,0.4,0
	c0,0.2-0.1,0.2-0.2,0.3c-0.7,0.5-1.3,1-2,1.4c-0.4,0.3-0.4,0.3-0.2,0.8c0.2,0.7,0.5,1.5,0.7,2.2c0,0.1,0.1,0.2,0.1,0.4
	c-0.2,0-0.3-0.1-0.4-0.2c-0.7-0.5-1.3-1-2-1.4c-0.3-0.2-0.3-0.2-0.7,0c-0.7,0.5-1.4,1-2.1,1.5C32.5,45.6,32.4,45.6,32.5,45.4z
	 M42.8,54.9c-0.6,0.4-1.2,0.8-1.7,1.3c-0.6,0.5-0.5,0.2-0.3,0.9c0.2,0.7,0.5,1.4,0.7,2.1c0,0.1,0.1,0.2,0.1,0.5
	c-0.9-0.6-1.6-1.2-2.4-1.7c-0.4-0.3-0.3-0.3-0.7,0c-0.6,0.5-1.3,0.9-1.9,1.4c-0.1,0.1-0.3,0.2-0.5,0.3c0.3-0.8,0.5-1.6,0.7-2.3
	c0.1-0.3,0.3-0.6,0.2-0.8c-0.1-0.3-0.4-0.4-0.7-0.6c-0.6-0.5-1.2-0.9-1.9-1.4c0.2-0.1,0.3-0.1,0.4-0.1c0.8,0,1.7,0,2.5,0
	c0.3,0,0.4-0.1,0.5-0.3c0.3-0.8,0.5-1.6,0.8-2.4c0-0.1,0.1-0.2,0.2-0.3c0.1,0.1,0.1,0.3,0.2,0.4c0.2,0.7,0.5,1.5,0.7,2.2
	c0.2,0.6,0.1,0.5,0.6,0.5c0.8,0,1.6,0,2.4,0c0.1,0,0.3,0,0.4,0.1C43,54.8,42.9,54.9,42.8,54.9z M42.8,26.9c-0.6,0.5-1.2,0.9-1.9,1.4
	c-0.5,0.3-0.5,0.3-0.3,0.9c0.3,0.8,0.5,1.6,0.7,2.3c0,0.1,0,0.1-0.1,0.1c-0.7-0.5-1.5-1.1-2.2-1.6c-0.2-0.1-0.3-0.2-0.5,0
	c-0.7,0.5-1.5,1.1-2.2,1.6c-0.1,0-0.2,0-0.1-0.1c0.3-0.8,0.5-1.7,0.8-2.5c0.1-0.4,0.1-0.4-0.2-0.6c-0.7-0.5-1.4-1-2.1-1.6
	c-0.1,0-0.1-0.1-0.2-0.1c0.1-0.1,0.3-0.1,0.4-0.1c0.8,0,1.6,0,2.4,0c0.5,0,0.5,0,0.6-0.4c0.3-0.8,0.5-1.6,0.8-2.3
	c0-0.1,0.1-0.2,0.2-0.3c0.2,0.3,0.2,0.6,0.3,0.9c0.2,0.6,0.4,1.2,0.6,1.9c0.1,0.3,0.2,0.3,0.5,0.3c0.8,0,1.6,0,2.4,0
	c0.2,0,0.3,0,0.5,0C43.1,26.8,42.9,26.8,42.8,26.9z M46.1,16.3c0.5,0,1,0,1.5,0c0.3,0,0.4-0.1,0.5-0.4c0.2-0.8,0.5-1.6,0.8-2.4
	c0-0.1,0.1-0.3,0.2-0.4c0.2,0.6,0.4,1.2,0.6,1.7c0.1,0.3,0.2,0.7,0.3,1c0.1,0.3,0.2,0.4,0.5,0.4c0.8,0,1.7,0,2.5,0
	c0.1,0,0.2,0,0.4,0c-0.1,0.2-0.2,0.2-0.3,0.3c-0.7,0.5-1.4,1-2.1,1.5c-0.2,0.1-0.2,0.3-0.2,0.5c0.3,0.9,0.6,1.7,0.8,2.6
	c0,0.1,0,0.1-0.1,0.1c-0.7-0.5-1.5-1.1-2.2-1.6c-0.2-0.2-0.3-0.1-0.5,0c-0.7,0.5-1.5,1.1-2.2,1.6c-0.1,0-0.2,0-0.1-0.1
	c0.3-0.9,0.5-1.7,0.8-2.6c0.1-0.3,0.1-0.4-0.2-0.6c-0.7-0.5-1.3-0.9-2-1.4c-0.1-0.1-0.2-0.2-0.5-0.4C45.2,16.3,45.7,16.3,46.1,16.3z
	 M53,65.2c-0.7,0.5-1.3,1-2,1.5c-0.2,0.1-0.2,0.3-0.1,0.5c0.3,0.8,0.5,1.6,0.8,2.3c0,0.2,0.1,0.3,0.2,0.6c-0.3-0.2-0.5-0.3-0.7-0.5
	c-0.6-0.4-1.2-0.8-1.7-1.3c-0.2-0.2-0.4-0.2-0.6,0c-0.7,0.5-1.3,1-2,1.4c-0.1,0.1-0.2,0.1-0.3,0.2c-0.1-0.2,0-0.3,0.1-0.4
	c0.2-0.8,0.5-1.6,0.8-2.4c0.1-0.3,0-0.4-0.2-0.6c-0.6-0.4-1.3-0.9-1.9-1.4c-0.1-0.1-0.3-0.2-0.4-0.3c0.1-0.1,0.3-0.1,0.4-0.1
	c0.8,0,1.7,0,2.5,0c0.3,0,0.4-0.1,0.5-0.4c0.3-0.8,0.5-1.7,0.8-2.5c0-0.1,0.1-0.1,0.1-0.2c0.1,0.1,0.1,0.3,0.2,0.4
	c0.3,0.8,0.5,1.6,0.8,2.3c0.1,0.4,0.1,0.4,0.5,0.4c0.8,0,1.6,0,2.4,0c0.2,0,0.3,0,0.5,0.1C53.2,65,53.1,65.1,53,65.2z M67.1,68.9
	c-0.7,0.5-1.3,1-2,1.4c-0.3,0.2-0.3,0.2-0.2,0.6c0.3,0.8,0.5,1.6,0.8,2.4c0,0.1,0.1,0.2,0,0.3c-0.3-0.2-0.6-0.4-0.9-0.6
	c-0.5-0.4-1-0.7-1.5-1.1c-0.2-0.1-0.3-0.1-0.5,0c-0.7,0.6-1.5,1.1-2.3,1.6c-0.1,0-0.1,0-0.1-0.1c0.3-0.9,0.6-1.7,0.8-2.6
	c0.1-0.4,0.1-0.4-0.2-0.6c-0.8-0.6-1.5-1.1-2.3-1.6c0.1-0.2,0.2-0.1,0.3-0.1c0.8,0,1.5,0,2.3,0c0.8,0,0.6,0.1,0.8-0.6
	c0.3-0.8,0.5-1.7,0.8-2.5c0.2,0.1,0.2,0.2,0.2,0.3c0.3,0.8,0.5,1.5,0.8,2.3c0.2,0.6,0.1,0.5,0.7,0.5c0.8,0,1.5,0,2.3,0
	c0.1,0,0.3,0,0.5,0C67.3,68.8,67.2,68.8,67.1,68.9z M67.1,12.9c-0.7,0.5-1.3,1-2,1.4c-0.3,0.2-0.3,0.2-0.2,0.6
	c0.3,0.8,0.5,1.6,0.8,2.4c0,0.1,0.1,0.2,0,0.3c-0.3-0.2-0.6-0.4-0.9-0.6c-0.5-0.4-1-0.7-1.5-1.1c-0.2-0.1-0.3-0.1-0.5,0
	c-0.7,0.6-1.5,1.1-2.3,1.6c-0.1,0-0.1,0-0.1-0.1c0.3-0.9,0.6-1.7,0.8-2.6c0.1-0.4,0.1-0.4-0.2-0.6c-0.8-0.6-1.5-1.1-2.3-1.6
	c0.1-0.2,0.2-0.1,0.3-0.1c0.8,0,1.5,0,2.3,0c0.8,0,0.6,0.1,0.8-0.6c0.3-0.8,0.5-1.7,0.8-2.5c0.2,0.1,0.2,0.2,0.2,0.3
	c0.3,0.8,0.5,1.5,0.8,2.3c0.2,0.6,0.1,0.5,0.7,0.5c0.8,0,1.5,0,2.3,0c0.1,0,0.3,0,0.5,0C67.3,12.8,67.2,12.8,67.1,12.9z M81.1,65.1
	c-0.7,0.5-1.4,1-2.1,1.5c-0.3,0.2-0.3,0.2-0.2,0.6c0.3,0.8,0.5,1.6,0.8,2.4c0,0.1,0.1,0.2,0,0.3c-0.2-0.2-0.4-0.3-0.7-0.5
	c-0.6-0.4-1.1-0.8-1.7-1.2c-0.2-0.2-0.4-0.2-0.6,0c-0.6,0.5-1.3,0.9-1.9,1.4c-0.1,0.1-0.3,0.2-0.4,0.3c0,0-0.1,0-0.1-0.1
	c0.1-0.4,0.3-0.8,0.4-1.2c0.2-0.5,0.3-1,0.5-1.5c0.1-0.2,0-0.4-0.2-0.5c-0.8-0.5-1.5-1.1-2.3-1.7c0.1-0.2,0.2-0.1,0.3-0.1
	c0.9,0,1.7,0,2.6,0c0.3,0,0.4-0.1,0.4-0.3c0.2-0.8,0.5-1.5,0.7-2.3c0-0.2,0.1-0.3,0.2-0.4c0.2,0,0.2,0.2,0.2,0.3
	c0.3,0.8,0.5,1.5,0.8,2.3c0.2,0.5,0.1,0.5,0.7,0.5c0.9,0,1.8,0,2.7,0C81.3,65,81.2,65,81.1,65.1z M81.1,16.6c-0.7,0.5-1.4,1-2.1,1.5
	c-0.2,0.2-0.3,0.3-0.2,0.6c0.3,0.9,0.6,1.8,0.9,2.7c0,0,0,0.1,0,0.1c-0.8-0.5-1.5-1.1-2.3-1.6c-0.5-0.3-0.3-0.3-0.8,0
	c-0.8,0.5-1.5,1.1-2.3,1.6c0,0,0,0,0-0.1c0,0,0,0,0,0c0.3-0.9,0.6-1.7,0.8-2.6c0.1-0.4,0.1-0.4-0.2-0.7c-0.6-0.5-1.3-0.9-1.9-1.4
	c-0.1-0.1-0.2-0.2-0.4-0.3c0.2,0,0.4,0,0.5,0c0.8,0,1.6,0,2.4,0c0.5,0,0.5,0,0.7-0.5c0.2-0.7,0.5-1.4,0.7-2.1c0-0.1,0.1-0.3,0.1-0.4
	c0.2,0.1,0.2,0.3,0.2,0.4c0.3,0.8,0.5,1.6,0.8,2.3c0.1,0.3,0.2,0.4,0.5,0.4c0.9,0,1.9,0,2.8,0C81.4,16.5,81.2,16.5,81.1,16.6z
	 M83.4,26.6c0.8,0,1.6,0,2.4,0c0.5,0,0.5,0,0.6-0.5c0.2-0.7,0.5-1.4,0.7-2.1c0-0.1,0.1-0.3,0.2-0.5c0.1,0.2,0.2,0.4,0.2,0.6
	c0.2,0.7,0.5,1.4,0.7,2.2c0.1,0.3,0.2,0.4,0.5,0.3c0.9,0,1.7,0,2.6,0c0.1,0,0.2,0,0.2,0c0,0.2-0.1,0.2-0.2,0.3c-0.7,0.5-1.4,1-2,1.5
	C89,28.6,89,28.6,89.1,29c0.3,0.9,0.6,1.7,0.8,2.6c0,0,0,0.1,0,0.1c-0.7-0.4-1.4-1-2.1-1.5c-0.1-0.1-0.2-0.1-0.3-0.2
	c-0.2-0.2-0.3-0.1-0.5,0c-0.7,0.5-1.4,1-2.1,1.5c-0.1,0.1-0.2,0.1-0.3,0.2c-0.1-0.1,0-0.2,0-0.3c0.3-0.8,0.5-1.6,0.8-2.4
	c0.1-0.5,0.2-0.4-0.2-0.7c-0.6-0.5-1.3-0.9-1.9-1.4c-0.1-0.1-0.2-0.1-0.3-0.3C83.1,26.6,83.3,26.6,83.4,26.6z M91.4,54.8
	c-0.7,0.5-1.4,1-2.1,1.5c-0.2,0.2-0.3,0.3-0.2,0.6c0.3,0.8,0.5,1.6,0.8,2.4c0,0.1,0.1,0.2,0,0.4c-0.6-0.4-1.2-0.9-1.8-1.3
	c-0.3-0.2-0.5-0.5-0.8-0.5c-0.3,0-0.5,0.3-0.8,0.5c-0.6,0.4-1.2,0.8-1.8,1.3c0,0-0.1,0-0.2,0.1c0.2-0.7,0.5-1.4,0.7-2.1
	c0.1-0.4,0.4-0.7,0.3-1.1c-0.1-0.3-0.5-0.5-0.8-0.7c-0.5-0.4-1.1-0.8-1.6-1.2c0,0,0,0-0.1-0.1c0-0.2,0.2-0.1,0.3-0.1
	c0.8,0,1.7,0,2.5,0c0.4,0,0.4,0,0.6-0.4c0.3-0.8,0.5-1.6,0.8-2.4c0-0.1,0-0.2,0.2-0.2c0,0.1,0.1,0.3,0.1,0.4
	c0.2,0.7,0.5,1.4,0.7,2.1c0.2,0.5,0,0.5,0.7,0.5c0.7,0,1.4,0,2.2,0c0.2,0,0.3,0,0.5,0C91.6,54.8,91.4,54.8,91.4,54.8z M95,40.9
	c-0.6,0.5-1.3,1-1.9,1.4c-0.2,0.2-0.3,0.3-0.2,0.6c0.3,0.8,0.5,1.6,0.8,2.4c0,0.1,0.1,0.2,0,0.3c-0.1,0-0.2-0.1-0.3-0.2
	c-0.7-0.5-1.4-1-2-1.5c-0.2-0.2-0.3-0.2-0.6,0c-0.8,0.6-1.5,1.1-2.3,1.7c0,0-0.1,0-0.1,0c0.3-0.9,0.6-1.7,0.8-2.6
	c0.2-0.6,0.2-0.4-0.3-0.8c-0.7-0.5-1.5-1.1-2.2-1.6c0.1-0.2,0.2-0.1,0.3-0.1c0.9,0,1.7,0,2.6,0c0.3,0,0.4-0.1,0.4-0.3
	c0.3-0.8,0.5-1.6,0.8-2.4c0-0.1,0-0.2,0.2-0.3c0.2,0.6,0.4,1.2,0.6,1.8c0.1,0.3,0.2,0.6,0.3,0.9c0.1,0.2,0.2,0.3,0.4,0.3
	c0.9,0,1.8,0,2.7,0c0.1,0,0.2,0,0.2,0.1C95.3,40.8,95.1,40.8,95,40.9z"/>
</svg>
