<?xml version="1.0" encoding="UTF-8"?>
<svg width="120px" height="27px" viewBox="0 0 120 27" version="1.1" xmlns="http://www.w3.org/2000/svg" xmlns:xlink="http://www.w3.org/1999/xlink">
    <title>Logotype</title>
    <g id="Symbols" stroke="none" stroke-width="1" fill="none" fill-rule="evenodd">
        <g id="components/header/main-header" transform="translate(-135.000000, -39.000000)" fill="#F06078">
            <g id="Logotype" transform="translate(135.000000, 39.500000)">
                <path d="M102.861461,16.6849774 C102.861461,11.2169673 106.929975,7.72578343 111.34005,7.72578343 C116.605542,7.72578343 119.854912,10.9751537 119.854912,16.4461865 C119.861585,16.9840398 119.827228,17.5216188 119.752141,18.0542469 L107.90932,18.0542469 C108.012091,19.967597 109.756171,21.3368666 111.772292,21.3368666 C113.652393,21.3368666 114.71335,20.4482016 115.190932,19.1121814 L119.534509,20.3454308 C118.715365,23.2864887 116.013098,25.7469421 111.705793,25.7469421 C107.032746,25.7469421 102.861461,22.3948011 102.861461,16.6849774 Z M108.024181,14.7021058 L114.828212,14.7021058 C114.75869,13.4023577 113.873048,11.8275467 111.409572,11.8275467 C109.221159,11.8305693 108.126952,13.4356071 108.024181,14.7021058 Z M30.7073048,16.6849774 C30.7073048,11.2169673 34.7758186,7.72578343 39.1707809,7.72578343 C44.4392947,7.72578343 47.6856423,10.9751537 47.6856423,16.4461865 C47.6917689,16.9839248 47.6584301,17.521388 47.5858942,18.0542469 L35.7672544,18.0542469 C35.8700252,19.967597 37.6141058,21.3368666 39.6332494,21.3368666 C41.5133501,21.3368666 42.5712846,20.4482016 43.0518892,19.1121814 L47.395466,20.3454308 C46.5732997,23.2864887 43.8710327,25.7469421 39.563728,25.7469421 C34.8785894,25.7469421 30.7073048,22.3948011 30.7073048,16.6849774 Z M35.8700252,14.7021058 L42.6740554,14.7021058 C42.604534,13.4023577 41.715869,11.8275467 39.2554156,11.8275467 C37.0670025,11.8305693 35.9697733,13.4356071 35.8700252,14.7021058 Z M49.6866499,20.5509723 C49.6866499,17.5434157 51.9083123,15.8325844 54.7103275,15.4124333 L58.7123426,14.8078993 C59.6191436,14.6688565 59.9425693,14.224524 59.9425693,13.6441713 C59.9425693,12.6527356 59.0871537,11.79732 57.4458438,11.79732 C55.6322418,11.79732 54.6438287,13.0275467 54.5380353,14.2940454 L50.0251889,13.3660857 C50.2307305,10.9479497 52.4856423,7.72578343 57.4790932,7.72578343 C62.986398,7.72578343 65.0025189,10.8028615 65.0025189,14.2910227 L65.0025189,22.6003426 C65.001356,23.4819771 65.0700851,24.3623164 65.2080605,25.2330882 L60.5229219,25.2330882 C60.3925449,24.6029977 60.3357417,23.9599039 60.3536524,23.3167154 C59.4649874,24.7524837 57.8236776,25.7106701 55.5657431,25.7106701 C51.8418136,25.7106701 49.6866499,23.2502167 49.6866499,20.5479497 L49.6866499,20.5509723 Z M56.729471,18.3293099 C55.6352645,18.4985794 54.8130982,19.0124333 54.8130982,20.2094106 C54.8130982,21.0980756 55.3964736,21.9534912 56.8322418,21.9534912 C58.3707809,21.9534912 59.9425693,21.2008464 59.9425693,18.5681008 L59.9425693,18.5681008 L59.9425693,17.8124333 L56.729471,18.3293099 Z M86.8201511,25.2361109 L86.8201511,20.6507205 L94.3073048,12.6920303 L87.02267,12.6920303 L87.02267,8.23661467 L100.926952,8.23661467 L100.926952,12.5136928 L93.1133501,20.7534912 L101.081108,20.7534912 L101.081108,25.2330882 L86.8201511,25.2361109 Z M78.4775819,25.2361109 L78.4775819,8.23661467 L83.6765743,8.23661467 L83.6765743,25.2330882 L78.4775819,25.2361109 Z M7.11234257,25.2361109 L3.18287154,12.6708716 L0,12.6708716 L0,8.23661467 L7.01561713,8.23661467 C7.11362936,8.23788572 7.19939565,8.30282305 7.22720403,8.39681618 L10.0201511,18.2900152 L13.3692695,8.23661467 L18.8735516,8.23661467 L22.1984887,18.3262872 L25.0367758,8.23661467 L30.1269521,8.23661467 L24.8584383,25.2330882 L19.6957179,25.2330882 L16.0020151,14.2577734 L12.3929471,25.2330882 L7.11234257,25.2361109 Z M69.0377834,25.2361109 L69.0377834,0.477420711 L74.2367758,0.477420711 L74.2367758,25.2330882 L69.0377834,25.2361109 Z M78.0332494,3.07691693 L78.0332494,3.04366756 C78.0333494,1.36695769 79.3894168,0.00607880951 81.0661158,2.00292746e-05 C82.7428148,-0.00599842407 84.1086493,1.34507755 84.1208265,3.02174321 C84.1330037,4.69840886 82.7869373,6.06918068 81.1103275,6.08749628 L81.0740554,6.08749628 C79.4030817,6.08423345 78.0465079,4.73575058 78.0332494,3.06482625 L78.0332494,3.07691693 Z" id="logo"></path>
            </g>
        </g>
    </g>
</svg>