<svg xmlns="http://www.w3.org/2000/svg" width="1223.851" height="743.141" viewBox="0 0 1223.851 743.141">
    <defs>
        <style>
            .cls-1{fill:#fff;stroke:#66f;stroke-width:3px}
        </style>
    </defs>
    <g id="Grupo_3380" transform="translate(-286.716 -100.239)">
        <g id="Grupo_3375" transform="translate(288.216 103.285)">
            <rect id="Rectángulo_8106" width="290.579" height="287.303" class="cls-1" rx="143.652"/>
            <rect id="Rectángulo_8107" width="290.579" height="287.328" class="cls-1" rx="143.664" transform="translate(14.653 35.189)"/>
            <rect id="Rectángulo_8108" width="290.579" height="287.353" class="cls-1" rx="143.676" transform="translate(29.305 70.378)"/>
            <rect id="Rectángulo_8109" width="290.579" height="287.377" class="cls-1" rx="143.689" transform="translate(43.958 105.568)"/>
            <rect id="Rectángulo_8110" width="290.579" height="287.402" class="cls-1" rx="143.701" transform="translate(58.61 140.757)"/>
            <rect id="Rectángulo_8111" width="290.579" height="287.427" class="cls-1" rx="143.713" transform="translate(73.263 175.946)"/>
            <rect id="Rectángulo_8112" width="290.579" height="287.452" class="cls-1" rx="143.726" transform="translate(87.915 211.135)"/>
            <rect id="Rectángulo_8113" width="290.579" height="287.476" class="cls-1" rx="143.738" transform="translate(102.568 246.324)"/>
            <rect id="Rectángulo_8114" width="290.579" height="287.501" class="cls-1" rx="143.751" transform="translate(117.22 281.514)"/>
            <rect id="Rectángulo_8115" width="290.579" height="287.526" class="cls-1" rx="143.763" transform="translate(131.873 316.703)"/>
            <rect id="Rectángulo_8116" width="290.579" height="287.551" class="cls-1" rx="143.775" transform="translate(146.525 351.892)"/>
            <rect id="Rectángulo_8117" width="290.579" height="287.575" class="cls-1" rx="143.788" transform="translate(161.178 387.081)"/>
            <rect id="Rectángulo_8118" width="290.579" height="287.6" class="cls-1" rx="143.8" transform="translate(175.831 422.27)"/>
            <rect id="Rectángulo_8119" width="290.579" height="287.625" class="cls-1" rx="143.812" transform="translate(194.844 450.921)"/>
            <rect id="Rectángulo_8120" width="290.579" height="287.65" class="cls-1" rx="143.825" transform="translate(232.974 450.908)"/>
            <rect id="Rectángulo_8121" width="290.579" height="287.674" class="cls-1" rx="143.837" transform="translate(271.103 450.896)"/>
            <rect id="Rectángulo_8122" width="290.579" height="287.699" class="cls-1" rx="143.85" transform="translate(309.232 450.884)"/>
            <rect id="Rectángulo_8123" width="290.579" height="287.724" class="cls-1" rx="143.862" transform="translate(347.362 450.871)"/>
        </g>
        <g id="Grupo_3376" transform="translate(288.216 102.5)">
            <rect id="Rectángulo_8124" width="290.579" height="287.303" class="cls-1" rx="143.652" transform="translate(0 .785)"/>
            <rect id="Rectángulo_8125" width="290.579" height="287.327" class="cls-1" rx="143.663" transform="translate(39.109 .523)"/>
            <rect id="Rectángulo_8126" width="290.579" height="287.35" class="cls-1" rx="143.675" transform="translate(78.219 .262)"/>
            <rect id="Rectángulo_8127" width="290.579" height="287.373" class="cls-1" rx="143.687" transform="translate(117.328)"/>
            <rect id="Rectángulo_8128" width="290.579" height="287.397" class="cls-1" rx="143.698" transform="translate(154.715 2.39)"/>
            <rect id="Rectángulo_8129" width="290.579" height="287.42" class="cls-1" rx="143.71" transform="translate(170.385 38.212)"/>
            <rect id="Rectángulo_8130" width="290.579" height="287.443" class="cls-1" rx="143.722" transform="translate(186.054 74.034)"/>
            <rect id="Rectángulo_8131" width="290.579" height="287.467" class="cls-1" rx="143.733" transform="translate(201.724 109.857)"/>
            <rect id="Rectángulo_8132" width="290.579" height="287.49" class="cls-1" rx="143.745" transform="translate(217.393 145.679)"/>
            <rect id="Rectángulo_8133" width="290.579" height="287.513" class="cls-1" rx="143.757" transform="translate(233.062 181.502)"/>
            <rect id="Rectángulo_8134" width="290.579" height="287.537" class="cls-1" rx="143.768" transform="translate(248.732 217.324)"/>
            <rect id="Rectángulo_8135" width="290.579" height="287.56" class="cls-1" rx="143.78" transform="translate(264.401 253.103)"/>
            <rect id="Rectángulo_8136" width="290.579" height="287.584" class="cls-1" rx="143.792" transform="translate(279.534 217.027)"/>
            <rect id="Rectángulo_8137" width="290.579" height="287.607" class="cls-1" rx="143.803" transform="translate(294.668 180.952)"/>
            <rect id="Rectángulo_8138" width="290.579" height="287.63" class="cls-1" rx="143.815" transform="translate(309.801 144.876)"/>
            <rect id="Rectángulo_8139" width="290.579" height="287.654" class="cls-1" rx="143.827" transform="translate(324.934 108.801)"/>
            <rect id="Rectángulo_8140" width="290.579" height="287.677" class="cls-1" rx="143.839" transform="translate(340.068 72.726)"/>
            <rect id="Rectángulo_8141" width="290.579" height="287.7" class="cls-1" rx="143.85" transform="translate(355.201 36.65)"/>
            <rect id="Rectángulo_8142" width="290.579" height="287.724" class="cls-1" rx="143.862" transform="translate(370.334 .575)"/>
        </g>
        <g id="Grupo_3377" transform="translate(635.578 297.591)">
            <rect id="Rectángulo_8143" width="290.579" height="287.303" class="cls-1" rx="143.652" transform="translate(0 256.775)"/>
            <rect id="Rectángulo_8144" width="290.579" height="287.327" class="cls-1" rx="143.663" transform="translate(14.135 220.014)"/>
            <rect id="Rectángulo_8145" width="290.579" height="287.35" class="cls-1" rx="143.675" transform="translate(28.27 183.254)"/>
            <rect id="Rectángulo_8146" width="290.579" height="287.373" class="cls-1" rx="143.687" transform="translate(42.404 146.493)"/>
            <rect id="Rectángulo_8147" width="290.579" height="287.397" class="cls-1" rx="143.698" transform="translate(56.539 109.732)"/>
            <rect id="Rectángulo_8148" width="290.579" height="287.42" class="cls-1" rx="143.71" transform="translate(70.674 72.971)"/>
            <rect id="Rectángulo_8149" width="290.579" height="287.443" class="cls-1" rx="143.722" transform="translate(84.859 36.231)"/>
            <rect id="Rectángulo_8150" width="290.579" height="287.467" class="cls-1" rx="143.733" transform="translate(100.301)"/>
            <rect id="Rectángulo_8151" width="290.579" height="287.49" class="cls-1" rx="143.745" transform="translate(116.065 34.697)"/>
            <rect id="Rectángulo_8152" width="290.579" height="287.513" class="cls-1" rx="143.757" transform="translate(130.9 71.156)"/>
            <rect id="Rectángulo_8153" width="290.579" height="287.537" class="cls-1" rx="143.768" transform="translate(145.654 107.649)"/>
            <rect id="Rectángulo_8154" width="290.579" height="287.56" class="cls-1" rx="143.78" transform="translate(160.407 144.143)"/>
            <rect id="Rectángulo_8155" width="290.579" height="287.584" class="cls-1" rx="143.792" transform="translate(175.16 180.636)"/>
            <rect id="Rectángulo_8156" width="290.579" height="287.607" class="cls-1" rx="143.803" transform="translate(189.913 217.13)"/>
            <rect id="Rectángulo_8157" width="290.579" height="287.63" class="cls-1" rx="143.815" transform="translate(204.667 253.623)"/>
            <rect id="Rectángulo_8158" width="290.579" height="287.654" class="cls-1" rx="143.827" transform="translate(242.288 256.21)"/>
            <rect id="Rectángulo_8159" width="290.579" height="287.677" class="cls-1" rx="143.839" transform="translate(281.661 256.199)"/>
            <rect id="Rectángulo_8160" width="290.579" height="287.7" class="cls-1" rx="143.85" transform="translate(321.035 256.187)"/>
            <rect id="Rectángulo_8161" width="290.579" height="287.724" class="cls-1" rx="143.862" transform="translate(360.409 256.175)"/>
        </g>
        <g id="Grupo_3378" transform="translate(658.551 101.739)">
            <rect id="Rectángulo_8162" width="290.579" height="287.303" class="cls-1" rx="143.652" transform="translate(0 1.546)"/>
            <rect id="Rectángulo_8163" width="290.579" height="287.322" class="cls-1" rx="143.661" transform="translate(39.642 1.031)"/>
            <rect id="Rectángulo_8164" width="290.579" height="287.341" class="cls-1" rx="143.671" transform="translate(79.283 .516)"/>
            <rect id="Rectángulo_8165" width="290.579" height="287.361" class="cls-1" rx="143.68" transform="translate(118.925)"/>
            <rect id="Rectángulo_8166" width="290.579" height="287.38" class="cls-1" rx="143.69" transform="translate(155.886 3.78)"/>
            <rect id="Rectángulo_8167" width="290.579" height="287.399" class="cls-1" rx="143.699" transform="translate(172.846 39.604)"/>
            <rect id="Rectángulo_8168" width="290.579" height="287.418" class="cls-1" rx="143.709" transform="translate(189.807 75.428)"/>
            <rect id="Rectángulo_8169" width="290.579" height="287.437" class="cls-1" rx="143.718" transform="translate(206.767 111.253)"/>
            <rect id="Rectángulo_8170" width="290.579" height="287.456" class="cls-1" rx="143.728" transform="translate(223.727 147.077)"/>
            <rect id="Rectángulo_8171" width="290.579" height="287.475" class="cls-1" rx="143.738" transform="translate(240.688 182.901)"/>
            <rect id="Rectángulo_8172" width="290.579" height="287.494" class="cls-1" rx="143.747" transform="translate(257.648 218.725)"/>
            <rect id="Rectángulo_8173" width="290.579" height="287.513" class="cls-1" rx="143.757" transform="translate(274.603 253.266)"/>
            <rect id="Rectángulo_8174" width="290.579" height="287.533" class="cls-1" rx="143.766" transform="translate(291.251 217.276)"/>
            <rect id="Rectángulo_8175" width="290.579" height="287.552" class="cls-1" rx="143.776" transform="translate(307.899 181.286)"/>
            <rect id="Rectángulo_8176" width="290.579" height="287.571" class="cls-1" rx="143.785" transform="translate(324.547 145.297)"/>
            <rect id="Rectángulo_8177" width="290.579" height="287.59" class="cls-1" rx="143.795" transform="translate(341.195 109.307)"/>
            <rect id="Rectángulo_8178" width="290.579" height="287.609" class="cls-1" rx="143.805" transform="translate(357.843 73.318)"/>
            <rect id="Rectángulo_8179" width="290.579" height="287.628" class="cls-1" rx="143.814" transform="translate(374.491 37.328)"/>
            <rect id="Rectángulo_8180" width="290.579" height="287.647" class="cls-1" rx="143.824" transform="translate(391.161 1.374)"/>
            <rect id="Rectángulo_8181" width="290.579" height="287.666" class="cls-1" rx="143.833" transform="translate(430.806 1.364)"/>
            <rect id="Rectángulo_8182" width="290.579" height="287.686" class="cls-1" rx="143.843" transform="translate(470.451 1.355)"/>
            <rect id="Rectángulo_8183" width="290.579" height="287.705" class="cls-1" rx="143.852" transform="translate(510.096 1.345)"/>
            <rect id="Rectángulo_8184" width="290.579" height="287.724" class="cls-1" rx="143.862" transform="translate(549.741 1.336)"/>
        </g>
        <g id="Grupo_3379" transform="translate(995.987 103.075)">
            <rect id="Rectángulo_8185" width="290.579" height="287.303" class="cls-1" rx="143.652" transform="translate(0 450.902)"/>
            <rect id="Rectángulo_8186" width="290.579" height="287.335" class="cls-1" rx="143.668" transform="translate(16.331 416.217)"/>
            <rect id="Rectángulo_8187" width="290.579" height="287.368" class="cls-1" rx="143.684" transform="translate(32.662 381.533)"/>
            <rect id="Rectángulo_8188" width="290.579" height="287.4" class="cls-1" rx="143.7" transform="translate(48.993 346.848)"/>
            <rect id="Rectángulo_8189" width="290.579" height="287.433" class="cls-1" rx="143.716" transform="translate(65.325 312.163)"/>
            <rect id="Rectángulo_8190" width="290.579" height="287.465" class="cls-1" rx="143.732" transform="translate(81.656 277.478)"/>
            <rect id="Rectángulo_8191" width="290.579" height="287.497" class="cls-1" rx="143.749" transform="translate(97.987 242.794)"/>
            <rect id="Rectángulo_8192" width="290.579" height="287.53" class="cls-1" rx="143.765" transform="translate(114.318 208.109)"/>
            <rect id="Rectángulo_8193" width="290.579" height="287.562" class="cls-1" rx="143.781" transform="translate(130.649 173.424)"/>
            <rect id="Rectángulo_8194" width="290.579" height="287.594" class="cls-1" rx="143.797" transform="translate(146.98 138.739)"/>
            <rect id="Rectángulo_8195" width="290.579" height="287.627" class="cls-1" rx="143.813" transform="translate(163.311 104.054)"/>
            <rect id="Rectángulo_8196" width="290.579" height="287.659" class="cls-1" rx="143.83" transform="translate(179.643 69.369)"/>
            <rect id="Rectángulo_8197" width="290.579" height="287.691" class="cls-1" rx="143.846" transform="translate(195.974 34.685)"/>
            <rect id="Rectángulo_8198" width="300.775" height="287.724" class="cls-1" rx="143.862" transform="translate(212.305)"/>
        </g>
    </g>
</svg>
