<svg xmlns="http://www.w3.org/2000/svg" width="32" height="32" viewBox="0 0 32 32">
  <g id="icon_linkedin" transform="translate(-967 -703)">
    <path id="FontAwsome_linkedin-in_" data-name="FontAwsome (linkedin-in)" d="M4.621,20.653H.341V6.871h4.28ZM2.479,4.991a2.49,2.49,0,1,1,2.479-2.5A2.5,2.5,0,0,1,2.479,4.991Zm18.16,15.662H16.368V13.944c0-1.6-.032-3.65-2.225-3.65-2.225,0-2.566,1.737-2.566,3.534v6.824H7.3V6.871h4.1v1.88h.06a4.5,4.5,0,0,1,4.049-2.226c4.331,0,5.128,2.852,5.128,6.557v7.571Z" transform="translate(973 707.99)" fill="#fff"/>
    <rect id="Rectángulo_7888" data-name="Rectángulo 7888" width="32" height="32" transform="translate(967 703)" fill="none"/>
  </g>
</svg>
