<svg xmlns="http://www.w3.org/2000/svg" width="32" height="32" viewBox="0 0 32 32">
  <g id="icon_twitter" transform="translate(-1055 -703)">
    <path id="FontAwsome_twitter_" data-name="FontAwsome (twitter)" d="M22.515,53.161c.016.223.016.446.016.669A14.533,14.533,0,0,1,7.9,68.463,14.534,14.534,0,0,1,0,66.154a10.64,10.64,0,0,0,1.242.064,10.3,10.3,0,0,0,6.385-2.2,5.152,5.152,0,0,1-4.809-3.567,6.486,6.486,0,0,0,.971.08,5.439,5.439,0,0,0,1.353-.175,5.144,5.144,0,0,1-4.124-5.047v-.064a5.18,5.18,0,0,0,2.325.653,5.151,5.151,0,0,1-1.592-6.879,14.619,14.619,0,0,0,10.6,5.382,5.806,5.806,0,0,1-.127-1.178,5.148,5.148,0,0,1,8.9-3.519,10.126,10.126,0,0,0,3.264-1.242A5.129,5.129,0,0,1,22.132,51.3a10.31,10.31,0,0,0,2.962-.8A11.055,11.055,0,0,1,22.515,53.161Z" transform="translate(1059 660.918)" fill="#fff"/>
    <rect id="Rectángulo_7890" data-name="Rectángulo 7890" width="32" height="32" transform="translate(1055 703)" fill="none"/>
  </g>
</svg>
