<svg xmlns="http://www.w3.org/2000/svg" width="140" height="30.078" viewBox="0 0 140 30.078">
  <g id="Grupo_2834" data-name="Grupo 2834" transform="translate(0 0)">
    <path id="Trazado_8817" data-name="Trazado 8817" d="M1260.428,4442.589l3.874,11.783,3.316-11.783h5.951l-6.151,19.852h-6.031l-4.314-12.821-4.234,12.821h-6.151l-6.231-19.852h6.117a.257.257,0,0,1,.247.188l3.262,11.556,3.915-11.743Z" transform="translate(-1238.381 -4432.963)" fill="#f06078"/>
    <path id="Trazado_8818" data-name="Trazado 8818" d="M1321.877,4456.229c-.958,3.435-4.114,6.312-9.146,6.312a10.11,10.11,0,0,1-10.345-10.586c0-6.39,4.753-10.464,9.905-10.464,6.152,0,9.946,3.794,9.946,10.186a12.745,12.745,0,0,1-.12,1.877H1308.3a4.3,4.3,0,0,0,4.513,3.834,3.835,3.835,0,0,0,3.994-2.6Zm-5.512-6.59c-.08-1.518-1.119-3.356-3.994-3.356a3.782,3.782,0,0,0-3.954,3.356Z" transform="translate(-1266.517 -4432.463)" fill="#f06078"/>
    <path id="Trazado_8819" data-name="Trazado 8819" d="M1348.884,4450.477l4.673-.719c1.079-.16,1.438-.679,1.438-1.358,0-1.158-1-2.157-2.916-2.157a3.194,3.194,0,0,0-3.4,2.916l-5.272-1.078c.24-2.836,2.875-6.591,8.707-6.591,6.431,0,8.788,3.595,8.788,7.668v9.706a19.589,19.589,0,0,0,.239,3.076h-5.472a9.713,9.713,0,0,1-.2-2.237,6.263,6.263,0,0,1-5.592,2.8c-4.353,0-6.87-2.875-6.87-6.031C1343.013,4452.954,1345.609,4450.957,1348.884,4450.477Zm6.112,3.674v-.878l-3.755.6c-1.278.2-2.237.8-2.237,2.2,0,1.039.679,2.036,2.357,2.036C1353.158,4458.105,1355,4457.228,1355,4454.151Z" transform="translate(-1284.976 -4432.463)" fill="#f06078"/>
    <path id="Trazado_8820" data-name="Trazado 8820" d="M1384.444,4454.889v-28.917h6.071v28.917Z" transform="translate(-1303.8 -4425.414)" fill="#f06078"/>
    <path id="Trazado_8821" data-name="Trazado 8821" d="M1407.212,4424.948a3.555,3.555,0,1,1-3.514,3.554A3.571,3.571,0,0,1,1407.212,4424.948Zm-3,29.477v-19.851h6.071v19.851Z" transform="translate(-1312.547 -4424.948)" fill="#f06078"/>
    <path id="Trazado_8822" data-name="Trazado 8822" d="M1422.509,4462.44v-5.354l8.747-9.306h-8.507v-5.192h16.257v4.993l-9.147,9.625h9.306v5.233Z" transform="translate(-1321.094 -4432.963)" fill="#f06078"/>
    <path id="Trazado_8823" data-name="Trazado 8823" d="M1476.333,4456.229c-.959,3.435-4.114,6.312-9.147,6.312a10.11,10.11,0,0,1-10.345-10.586c0-6.39,4.753-10.464,9.906-10.464,6.151,0,9.946,3.794,9.946,10.186a12.627,12.627,0,0,1-.12,1.877h-13.82a4.3,4.3,0,0,0,4.513,3.834,3.835,3.835,0,0,0,3.994-2.6Zm-5.512-6.59c-.08-1.518-1.118-3.356-3.994-3.356a3.782,3.782,0,0,0-3.954,3.356Z" transform="translate(-1336.693 -4432.463)" fill="#f06078"/>
    <rect id="Rectángulo_7337" data-name="Rectángulo 7337" width="3.849" height="5.175" transform="translate(3.849 14.8) rotate(180)" fill="#f06078"/>
  </g>
</svg>
