<?xml version="1.0" encoding="UTF-8"?>
<svg width="52px" height="52px" viewBox="0 0 52 52" version="1.1" xmlns="http://www.w3.org/2000/svg" xmlns:xlink="http://www.w3.org/1999/xlink">
    <title>Group</title>
    <g id="Symbols" stroke="none" stroke-width="1" fill="none" fill-rule="evenodd">
        <g id="Group">
            <circle id="bg" stroke="#EBEBEB" stroke-width="2" cx="26" cy="26" r="25"></circle>
            <path d="M41.6,16.4743565 C40.45301,16.9760059 39.21853,17.3138514 37.92386,17.4663938 C39.24557,16.6862778 40.26061,15.451734 40.73784,13.9806984 C39.50245,14.7033551 38.13082,15.2265037 36.67391,15.5100892 C35.50599,14.2857831 33.84108,13.52 32.00145,13.52 C28.46675,13.52 25.60064,16.3413938 25.60064,19.8209466 C25.60064,20.3142778 25.65784,20.7954517 25.76704,21.2571739 C20.44679,20.9950876 15.73065,18.4859449 12.57347,14.6736656 C12.02227,15.6042764 11.70715,16.6862778 11.70715,17.8410951 C11.70715,20.0267252 12.83555,21.9553879 14.55454,23.0855067 C13.50414,23.0527459 12.51835,22.7691604 11.65411,22.2972005 L11.65411,22.3760311 C11.65411,25.4298217 13.8619,27.9756923 16.78833,28.5561723 C16.25169,28.6995007 15.68593,28.7773076 15.10262,28.7773076 C14.68974,28.7773076 14.2883,28.7373804 13.89726,28.6636686 C14.71158,31.1666687 17.07641,32.9888589 19.87687,33.0400476 C17.68676,34.7291471 14.92686,35.7374368 11.92763,35.7374368 C11.40971,35.7374368 10.90024,35.7077473 10.4,35.6483684 C13.23283,37.4358782 16.59697,38.48 20.21175,38.48 C31.98481,38.48 38.42306,28.8786612 38.42306,20.5528172 C38.42306,20.2794695 38.41786,20.0072735 38.40434,19.7380208 C39.65637,18.8473373 40.742,17.7376939 41.6,16.4743565 Z" id="Path" fill="#EBEBEB"></path>
        </g>
    </g>
</svg>