<?xml version="1.0" encoding="UTF-8"?>
<svg width="130px" height="29px" viewBox="0 0 130 29" version="1.1" xmlns="http://www.w3.org/2000/svg" xmlns:xlink="http://www.w3.org/1999/xlink">
    <title>Logotype</title>
    <g id="Symbols" stroke="none" stroke-width="1" fill="none" fill-rule="evenodd">
        <g id="components/footer/main-footer" transform="translate(-135.000000, -90.000000)" fill="#FFFFFF">
            <g id="Logotype" transform="translate(135.000000, 90.000000)">
                <path d="M111.433249,18.1833538 C111.433249,12.224295 115.840806,8.41958908 120.618388,8.41958908 C126.32267,8.41958908 129.842821,11.9607656 129.842821,17.9231185 C129.85005,18.5092732 129.812831,19.0951289 129.731486,19.6755891 L116.901763,19.6755891 C117.013098,21.7607656 118.902519,23.2530008 121.08665,23.2530008 C123.123426,23.2530008 124.272796,22.2845303 124.790176,20.8285303 L129.495718,22.1725303 C128.608312,25.3777067 125.680856,28.0591185 121.01461,28.0591185 C115.952141,28.0591185 111.433249,24.405942 111.433249,18.1833538 Z M117.026196,16.0224126 L124.397229,16.0224126 C124.321914,14.605942 123.362469,12.8897067 120.693703,12.8897067 C118.322922,12.8930008 117.137531,14.6421773 117.026196,16.0224126 Z M33.2662469,18.1833538 C33.2662469,12.224295 37.6738035,8.41958908 42.4350126,8.41958908 C48.1425693,8.41958908 51.6594458,11.9607656 51.6594458,17.9231185 C51.666083,18.5091479 51.6299659,19.0948773 51.5513854,19.6755891 L38.7478589,19.6755891 C38.859194,21.7607656 40.7486146,23.2530008 42.9360202,23.2530008 C44.972796,23.2530008 46.1188917,22.2845303 46.6395466,20.8285303 L51.3450882,22.1725303 C50.4544081,25.3777067 47.5269521,28.0591185 42.8607053,28.0591185 C37.7851385,28.0591185 33.2662469,24.405942 33.2662469,18.1833538 Z M38.859194,16.0224126 L46.2302267,16.0224126 C46.1549118,14.605942 45.1921914,12.8897067 42.5267003,12.8897067 C40.1559194,12.8930008 38.9672544,14.6421773 38.859194,16.0224126 Z M53.827204,22.3965303 C53.827204,19.1188832 56.234005,17.2544126 59.2695214,16.7965303 L63.6050378,16.1377067 C64.5874055,15.9861773 64.9377834,15.501942 64.9377834,14.8694714 C64.9377834,13.7890008 64.0110831,12.8567656 62.2329975,12.8567656 C60.268262,12.8567656 59.1974811,14.1974714 59.0828715,15.5777067 L54.1939547,14.5664126 C54.4166247,11.9311185 56.8594458,8.41958908 62.2690176,8.41958908 C68.2352645,8.41958908 70.4193955,11.7730008 70.4193955,15.5744126 L70.4193955,24.629942 C70.4181356,25.5907507 70.4925922,26.550148 70.6420655,27.4991185 L65.5664987,27.4991185 C65.425257,26.8124434 65.3637201,26.1115972 65.3831234,25.4106479 C64.420403,26.9753538 62.6423174,28.0195891 60.1962217,28.0195891 C56.1619647,28.0195891 53.827204,25.3381773 53.827204,22.3932361 L53.827204,22.3965303 Z M61.456927,19.9753538 C60.2715365,20.1598244 59.3808564,20.7198244 59.3808564,22.024295 C59.3808564,22.9927656 60.0128463,23.9250008 61.568262,23.9250008 C63.2350126,23.9250008 64.9377834,23.1047656 64.9377834,20.2355891 L64.9377834,20.2355891 L64.9377834,19.4120597 L61.456927,19.9753538 Z M94.0551637,27.5024126 L94.0551637,22.5052361 L102.166247,13.8318244 L94.2745592,13.8318244 L94.2745592,8.97629496 L109.337531,8.97629496 L109.337531,13.6374714 L100.872796,22.6172361 L109.504534,22.6172361 L109.504534,27.4991185 L94.0551637,27.5024126 Z M85.0173804,27.5024126 L85.0173804,8.97629496 L90.6496222,8.97629496 L90.6496222,27.4991185 L85.0173804,27.5024126 Z M7.70503778,27.5024126 L3.44811083,13.8087656 L0,13.8087656 L0,8.97629496 L7.60025189,8.97629496 C7.70643181,8.97768016 7.79934529,9.04844912 7.82947103,9.1508832 L10.8551637,19.9325303 L14.4833753,8.97629496 L20.4463476,8.97629496 L24.0483627,19.9720597 L27.1231738,8.97629496 L32.6375315,8.97629496 L26.9299748,27.4991185 L21.3370277,27.4991185 L17.3355164,15.5381773 L13.4256927,27.4991185 L7.70503778,27.5024126 Z M74.790932,27.5024126 L74.790932,0.520294963 L80.4231738,0.520294963 L80.4231738,27.4991185 L74.790932,27.5024126 Z M84.5360202,3.35323614 L84.5360202,3.31700085 C84.5361285,1.48971585 86.0052016,0.00662471044 87.8216255,2.1827982e-05 C89.6380494,-0.00653710607 91.1177034,1.46587079 91.1308954,3.2931076 C91.1440874,5.1203444 89.6858487,6.6142169 87.8695214,6.63417732 L87.8302267,6.63417732 C86.0200051,6.63062147 84.5503836,5.16103955 84.5360202,3.34005967 L84.5360202,3.35323614 Z" id="logo"></path>
            </g>
        </g>
    </g>
</svg>